<?xml version="1.0" encoding="iso-8859-1"?>
<!-- Generator: Adobe Illustrator 19.0.0, SVG Export Plug-In . SVG Version: 6.00 Build 0)  -->
<svg xmlns="http://www.w3.org/2000/svg" xmlns:xlink="http://www.w3.org/1999/xlink" version="1.1" id="Capa_1" x="0px" y="0px" viewBox="0 0 512 512" style="enable-background:new 0 0 512 512;" xml:space="preserve" width="512px" height="512px">
<g>
	<g>
		<path d="M248.921,221.175c-2.842-3.012-7.59-3.15-10.603-0.311l-21.332,20.111c-13.097-9.412-35.723-15.99-59.45-16.899    c-19.372-0.747-55.861,1.808-82.821,27.225c-27.769,26.179-48.783,67.368-62.461,122.423    c-10.091,40.617-12.157,73.229-12.24,74.598c-0.125,2.066,0.609,4.093,2.029,5.599c1.417,1.503,3.392,2.355,5.457,2.355h0.013    c1.371-0.002,34.049-0.145,75.189-7.826c55.765-10.412,98.12-28.965,125.889-55.145c26.96-25.417,31.655-61.705,32.054-81.074    c0.489-23.74-4.744-46.714-13.369-60.343l21.332-20.111C251.623,228.936,251.762,224.189,248.921,221.175z M198.302,382.392    c-52.387,49.387-153.193,57.362-182.593,58.642c2.995-29.259,16.852-129.376,69.295-178.819    c35.341-33.315,97.517-25.133,120.821-10.718l-70.119,66.105l-41.463-1.222c-4.184-0.137-7.596,3.136-7.718,7.276    c-0.122,4.14,3.136,7.595,7.276,7.717l26.47,0.78l-19.598,18.476c-3.015,2.841-3.154,7.588-0.313,10.602    c1.476,1.565,3.465,2.355,5.458,2.355c1.846,0,3.695-0.677,5.144-2.043l58.925-55.552l-1.343,45.571    c-0.122,4.14,3.136,7.596,7.276,7.717c0.075,0.002,0.15,0.003,0.225,0.003c4.04,0,7.373-3.214,7.493-7.279l1.785-60.565    l30.791-29.029C229.133,286.524,233.64,349.076,198.302,382.392z" fill="#ffc957"/>
	</g>
</g>
<g>
	<g>
		<path d="M85.059,375.657c-2.841-3.014-7.589-3.152-10.602-0.312l-6.557,6.181c-3.015,2.841-3.154,7.588-0.313,10.602    c1.476,1.565,3.465,2.355,5.458,2.355c1.846,0,3.695-0.677,5.144-2.043l6.557-6.181C87.761,383.418,87.9,378.671,85.059,375.657z" fill="#ffc957"/>
	</g>
</g>
<g>
	<g>
		<path d="M511.812,325.569c-0.236-1.035-5.937-25.684-18.762-55.394c-17.434-40.386-38.771-69.267-63.421-85.841    c-24.184-16.259-52.736-13.572-67.606-10.521c-17.513,3.593-33.616,11.159-42.85,19.781l-17.568-11.812    c-3.438-2.311-8.099-1.399-10.408,2.04c-2.312,3.437-1.398,8.097,2.039,10.409l17.557,11.805    c-9.987,25.988-3.048,81.477,33.115,105.792c31.996,21.513,76.332,26.492,110.528,26.492c28.118,0,49.382-3.368,51.276-3.678    c2.043-0.334,3.857-1.499,5.012-3.217C511.879,329.706,512.273,327.587,511.812,325.569z M447.643,323.172    c-28.227-0.581-67.685-5.181-95.366-23.792c-19.641-13.206-26.523-36.333-28.878-48.943c-2.656-14.226-1.941-27.284,0.328-35.704    l58.966,39.646l6,30.621c0.701,3.578,3.839,6.06,7.353,6.06c0.478,0,0.963-0.046,1.45-0.142c4.064-0.796,6.714-4.737,5.918-8.802    l-3.115-15.9l13.735,9.235c1.284,0.863,2.738,1.277,4.178,1.277c2.413,0,4.783-1.163,6.23-3.316    c2.312-3.437,1.398-8.097-2.039-10.409l-28.713-19.305c-0.03-0.021-0.061-0.041-0.092-0.062l-19.444-13.073l30.331-5.942    c4.064-0.796,6.714-4.737,5.918-8.802c-0.796-4.064-4.729-6.715-8.803-5.918l-45.05,8.826l-24.453-16.442    c6.941-5.279,18.764-10.868,32.941-13.776c12.566-2.579,36.58-4.931,56.223,8.275c27.616,18.568,46.735,53.258,57.911,79.09    c8.084,18.685,13.291,35.574,15.934,45.052C485.388,322.049,467.922,323.588,447.643,323.172z" fill="#ffc957"/>
	</g>
</g>
<g>
	<g>
		<path d="M451.163,282.34l-5.754-3.869c-3.438-2.312-8.1-1.399-10.409,2.039c-2.312,3.438-1.398,8.098,2.038,10.409l5.754,3.869    c1.284,0.864,2.739,1.277,4.179,1.277c2.413,0,4.783-1.163,6.23-3.316C455.513,289.311,454.6,284.651,451.163,282.34z" fill="#ffc957"/>
	</g>
</g>
<g>
	<g>
		<path d="M311.659,82.694c-1.539-3.846-5.904-5.716-9.749-4.178l-13.973,5.589c-5.947-7.908-16.515-15.773-28.983-21.248    c-18.957-8.323-38.159-9.4-54.074-3.034c-51,20.4-84.458,91.185-85.856,94.188c-0.875,1.876-0.935,4.031-0.166,5.953    c0.77,1.922,2.298,3.441,4.226,4.197c2.27,0.89,42.408,16.381,83.778,16.381c14.856,0,29.876-1.999,43.351-7.389    c15.916-6.366,29.079-20.391,37.064-39.489c5.304-12.686,7.525-25.8,6.3-35.66l13.903-5.561    C311.326,90.905,313.197,86.54,311.659,82.694z M273.437,127.875c-3.717,8.896-12.404,24.794-28.795,31.351    c-36.449,14.578-88.628,0.148-108.239-6.285c9.749-18.182,37.536-64.587,74.048-79.192c22.985-9.192,51.409,4.601,62.845,16.212    l-48.361,19.344l-21.062-9.2c-3.795-1.657-8.216,0.076-9.875,3.871c-1.658,3.796,0.075,8.217,3.871,9.875l7.505,3.278    l-22.21,8.884c-3.846,1.538-5.717,5.903-4.179,9.749c1.173,2.932,3.989,4.716,6.966,4.716c0.928,0,1.87-0.173,2.783-0.539    l52.363-20.945l-7.855,18.328c-1.632,3.808,0.132,8.217,3.939,9.848c0.963,0.413,1.965,0.608,2.95,0.608    c2.91,0,5.679-1.704,6.897-4.547l13.764-32.116l18.121-7.248C278.842,110.193,277.206,118.861,273.437,127.875z" fill="#ffc957"/>
	</g>
</g>
<g>
</g>
<g>
</g>
<g>
</g>
<g>
</g>
<g>
</g>
<g>
</g>
<g>
</g>
<g>
</g>
<g>
</g>
<g>
</g>
<g>
</g>
<g>
</g>
<g>
</g>
<g>
</g>
<g>
</g>
</svg>
