<?xml version="1.0" encoding="iso-8859-1"?>
<!-- Generator: Adobe Illustrator 18.0.0, SVG Export Plug-In . SVG Version: 6.00 Build 0)  -->
<!DOCTYPE svg PUBLIC "-//W3C//DTD SVG 1.1//EN" "http://www.w3.org/Graphics/SVG/1.1/DTD/svg11.dtd">
<svg xmlns="http://www.w3.org/2000/svg" xmlns:xlink="http://www.w3.org/1999/xlink" version="1.1" id="Capa_1" x="0px" y="0px" viewBox="0 0 295.198 295.198" style="enable-background:new 0 0 295.198 295.198;" xml:space="preserve" width="512px" height="512px">
<g>
	<path d="M242.382,91.728l25.377,19.802c3.479,2.923,8.803,1.539,10.418-2.708l16.589-43.611c0.826-2.172,0.45-4.619-0.991-6.442   L256.859,12.07L242.382,91.728z" fill="#FFFFFF"/>
	<path d="M54.545,91.728L40.411,9.448L1.423,58.768c-1.441,1.823-1.818,4.27-0.992,6.442l16.589,43.611   c1.616,4.247,6.939,5.631,10.419,2.708L54.545,91.728z" fill="#FFFFFF"/>
	<polygon points="184.414,2.109 115.122,2.109 148.379,65.17  " fill="#FFFFFF"/>
	<path d="M98.861,2.109h-39.08c-3.15,0-5.544,2.833-5.018,5.939l25.423,150.259h34.925v-33.008c0-1.251,0.327-2.481,0.947-3.568   l23.865-41.764L98.861,2.109z" fill="#FFFFFF"/>
	<path d="M129.494,158.307h88.034L242.952,8.048c0.526-3.106-1.868-5.939-5.018-5.939H200.98l-71.486,125.1V158.307z" fill="#FFFFFF"/>
	<path d="M184.316,175.123l24.972,24.972c2.808,2.809,2.808,7.362,0,10.171c-1.405,1.404-3.246,2.106-5.086,2.106   c-1.84,0-3.681-0.702-5.086-2.106l-24.62-24.62v37.681c0,3.938-3.035,7.372-6.971,7.489c-4.073,0.122-7.412-3.143-7.412-7.188   v-48.506h-30.62v117.966h106.095c4.009,0,6.976-3.73,6.074-7.636l-25.473-110.33H184.316z" fill="#FFFFFF"/>
	<path d="M62.126,293.089h52.985V175.123H81.524l-25.472,110.33C55.15,289.36,58.117,293.089,62.126,293.089z" fill="#FFFFFF"/>
</g>
<g>
</g>
<g>
</g>
<g>
</g>
<g>
</g>
<g>
</g>
<g>
</g>
<g>
</g>
<g>
</g>
<g>
</g>
<g>
</g>
<g>
</g>
<g>
</g>
<g>
</g>
<g>
</g>
<g>
</g>
</svg>
