<?xml version="1.0" encoding="iso-8859-1"?>
<!-- Generator: Adobe Illustrator 18.0.0, SVG Export Plug-In . SVG Version: 6.00 Build 0)  -->
<!DOCTYPE svg PUBLIC "-//W3C//DTD SVG 1.1//EN" "http://www.w3.org/Graphics/SVG/1.1/DTD/svg11.dtd">
<svg xmlns="http://www.w3.org/2000/svg" xmlns:xlink="http://www.w3.org/1999/xlink" version="1.1" id="Capa_1" x="0px" y="0px" viewBox="0 0 297 297" style="enable-background:new 0 0 297 297;" xml:space="preserve" width="512px" height="512px">
<path d="M293.026,70.959c-2.199-0.963-4.729-0.656-6.626,0.76c-1.202,0.66-14.168,6.892-75.519,6.892  c-21.895,0-42.652,6.37-61.771,18.945c-19.126-12.575-39.885-18.945-61.774-18.945c-59.516,0-74.459-5.844-76.693-6.913  c-1.811-1.897-4.258-2.189-6.752-1.241C1.313,71.432,0,74.28,0,77.036c0,1.501,0.117,37.183,10.336,73.496  c14.09,50.07,40.715,76.536,77,76.536c24.354,0,45.109-5.344,61.774-15.894c16.659,10.55,37.413,15.894,61.771,15.894  c35.801,0,62.062-26.475,75.942-76.561C296.885,114.205,297,78.537,297,77.036C297,74.401,295.44,72.016,293.026,70.959z   M129.322,170.769c-1.124,1.694-2.963,2.781-4.989,2.946c-0.591,0.048-14.813,1.185-43.194,1.185  c-32.895,0-48.328-46.939-48.969-48.938c-0.646-2.018-0.291-4.224,0.958-5.935c1.249-1.712,3.24-2.725,5.359-2.725h42.651  c32.86,0,48.313,45.777,48.956,47.727C130.73,166.959,130.446,169.074,129.322,170.769z M264.83,125.962  c-0.641,1.998-16.074,48.938-48.967,48.938c-28.378,0-42.603-1.137-43.194-1.185c-2.026-0.165-3.865-1.252-4.988-2.946  c-1.125-1.694-1.409-3.81-0.773-5.741c0.642-1.949,16.1-47.725,48.955-47.725h42.649c2.119,0,4.11,1.013,5.359,2.725  C265.121,121.739,265.477,123.944,264.83,125.962z" fill="#FFFFFF"/>
<g>
</g>
<g>
</g>
<g>
</g>
<g>
</g>
<g>
</g>
<g>
</g>
<g>
</g>
<g>
</g>
<g>
</g>
<g>
</g>
<g>
</g>
<g>
</g>
<g>
</g>
<g>
</g>
<g>
</g>
</svg>
